<?xml version="1.0" standalone="no"?><!DOCTYPE svg PUBLIC "-//W3C//DTD SVG 1.1//EN" "http://www.w3.org/Graphics/SVG/1.1/DTD/svg11.dtd"><svg t="1521614327977" class="icon" style="" viewBox="0 0 1024 1024" version="1.1" xmlns="http://www.w3.org/2000/svg" p-id="4111" xmlns:xlink="http://www.w3.org/1999/xlink" width="200" height="200"><defs><style type="text/css"></style></defs><path d="M870.290286 765.147429c-14.848-106.861714-58.294857-201.728-155.428572-214.857143-50.285714 54.857143-122.843429 89.709714-202.861714 89.709714s-152.576-34.852571-202.861714-89.709714c-97.133714 13.129143-140.580571 107.995429-155.428572 214.857143C233.142857 877.165714 363.995429 950.857143 512 950.857143s278.857143-73.728 358.290286-185.709714zM731.428571 365.714286c0-121.161143-98.304-219.428571-219.428571-219.428572s-219.428571 98.304-219.428571 219.428572 98.304 219.428571 219.428571 219.428571 219.428571-98.304 219.428571-219.428571z m292.571429 146.285714c0 281.709714-228.571429 512-512 512-282.843429 0-512-229.705143-512-512C0 229.156571 229.156571 0 512 0s512 229.156571 512 512z" fill="#C8161D" p-id="4112"></path></svg>